<svg xmlns="http://www.w3.org/2000/svg" viewBox="0 0 256 256" role="img" aria-labelledby="title desc">
  <title id="title">Google logo</title>
  <desc id="desc">Multicolor Google G mark on transparent background.</desc>
  <path fill="#EA4335" d="M128 52c18.4 0 35 6.3 48.1 18.6l34.7-34.7C189.8 16 161.9 4 128 4 78.1 4 35.2 32.7 14.4 74.6l40.3 31.3C64.5 73.7 93.6 52 128 52z"/>
  <path fill="#FBBC05" d="M54.7 105.9 14.4 74.6C5.3 92.8 0 113.3 0 135c0 21.7 5.3 42.2 14.4 60.4l40.3-31.3C50.9 155.8 48 145.7 48 135c0-10.7 2.9-20.8 6.7-29.1z"/>
  <path fill="#34A853" d="M128 256c33.1 0 61-10.9 81.5-29.6l-37.8-29.3c-12.1 8.2-27.4 13-43.7 13-34.4 0-63.5-21.7-73.3-53.9l-40.3 31.3C35.2 227.3 78.1 256 128 256z"/>
  <path fill="#4285F4" d="M251.6 135c0-7.8-.7-15.2-2-22.3H128v44.6h69.6c-3 16-12 29.6-25.9 38.8l37.8 29.3c22-20.2 42.1-50.2 42.1-90.4z"/>
</svg>
